<?xml version="1.0" encoding="utf-8"?>
<!-- Generator: Adobe Illustrator 19.2.0, SVG Export Plug-In . SVG Version: 6.00 Build 0)  -->
<svg version="1.1" id="Layer_1" xmlns="http://www.w3.org/2000/svg" xmlns:xlink="http://www.w3.org/1999/xlink" x="0px" y="0px"
	 viewBox="0 0 46.2 33.4" style="enable-background:new 0 0 46.2 33.4;" xml:space="preserve">
<style type="text/css">
	.st0{fill:#88C4F2;}
	.st1{fill:#FFFFFF;}
</style>
<g id="Layer_2">
	<rect x="295.2" y="-117.2" class="st0" width="270.8" height="131.6"/>
</g>
<g id="Layer_1_1_">
	<path d="M507.2-49.3c-0.3,0-0.6,0-0.9,0.1l-1.9-3.9c1-0.7,1.7-1.8,1.7-3.1v0c0-2-1.6-3.7-3.7-3.7c-0.4,0-0.9,0.1-1.2,0.2l-3.8-7.7
		c1.6-0.9,2.8-2.5,2.9-4.5c0.3-3.1-2.1-5.9-5.2-6.1s-5.9,2.1-6.1,5.2s2.1,5.9,5.2,6.1c0.8,0.1,1.6,0,2.3-0.3l3.8,7.7
		c-1,0.7-1.6,1.8-1.6,3v0c0,2,1.5,3.7,3.7,3.7c0.4,0,0.8-0.1,1.1-0.2l1.9,3.9c-0.5,0.4-0.8,1-0.8,1.6c-0.1,1.3,0.9,2.5,2.2,2.6
		c1.3,0.1,2.5-0.9,2.6-2.2C509.5-48.1,508.5-49.2,507.2-49.3z"/>
	<g>
		<path d="M477-54.8L477-54.8c0-1.5,1.2-2.3,3-2.3c0.9,0,1.5,0.1,2.2,0.3V-57c0-1.3-0.8-1.9-2.1-1.9c-0.8,0-1.5,0.2-2.1,0.5
			l-0.3-0.9c0.8-0.4,1.5-0.6,2.6-0.6c1,0,1.8,0.3,2.3,0.8c0.5,0.5,0.7,1.2,0.7,2.1v4.3h-1v-1.1c-0.5,0.6-1.3,1.2-2.6,1.2
			C478.3-52.6,477-53.3,477-54.8z M482.2-55.3V-56c-0.5-0.2-1.2-0.3-2.1-0.3c-1.3,0-2.1,0.6-2.1,1.5v0c0,0.9,0.8,1.4,1.8,1.4
			C481.1-53.4,482.2-54.2,482.2-55.3z"/>
		<path d="M485.3-55.4v-4.4h1.1v4.1c0,1.3,0.7,2.1,2,2.1c1.2,0,2.1-0.9,2.1-2.2v-4.1h1v7.1h-1v-1.2c-0.5,0.8-1.2,1.4-2.4,1.4
			C486.3-52.6,485.3-53.7,485.3-55.4z"/>
		<path d="M494.3-54.6v-4.3h-1v-0.9h1v-2.1h1.1v2.1h2.2v0.9h-2.2v4.1c0,0.9,0.5,1.2,1.2,1.2c0.4,0,0.7-0.1,1-0.2v0.9
			c-0.4,0.2-0.8,0.3-1.3,0.3C495.1-52.6,494.3-53.2,494.3-54.6z"/>
		<path d="M507.2-49.3c-0.3,0-0.6,0-0.9,0.1l-1.9-3.9c1-0.7,1.7-1.8,1.7-3.1v0c0-2-1.6-3.7-3.7-3.7c-0.4,0-0.9,0.1-1.2,0.2l-3.8-7.7
			c1.6-0.9,2.8-2.5,2.9-4.5c0.3-3.1-2.1-5.9-5.2-6.1s-5.9,2.1-6.1,5.2s2.1,5.9,5.2,6.1c0.8,0.1,1.6,0,2.3-0.3l3.8,7.7
			c-1,0.7-1.6,1.8-1.6,3v0c0,2,1.5,3.7,3.7,3.7c0.4,0,0.8-0.1,1.1-0.2l1.9,3.9c-0.5,0.4-0.8,1-0.8,1.6c-0.1,1.3,0.9,2.5,2.2,2.6
			c1.3,0.1,2.5-0.9,2.6-2.2C509.5-48.1,508.5-49.2,507.2-49.3z M494.4-67.7c-2.6-0.2-4.5-2.5-4.3-5c0.2-2.6,2.5-4.5,5-4.3
			c2.6,0.2,4.5,2.5,4.3,5C499.2-69.4,496.9-67.5,494.4-67.7z M499.9-56.2L499.9-56.2c0-1.5,1.1-2.8,2.6-2.8c1.5,0,2.6,1.2,2.6,2.8v0
			c0,1.5-1.1,2.7-2.6,2.7C501-53.5,499.9-54.7,499.9-56.2z M506.9-45.5c-0.8-0.1-1.5-0.8-1.4-1.6c0.1-0.8,0.8-1.5,1.6-1.4
			c0.8,0.1,1.5,0.8,1.4,1.6C508.5-46,507.7-45.4,506.9-45.5z"/>
		<path d="M506.9-59.8h1.2l2.4,5.9l2.4-5.9h1.1l-3.1,7.1H510L506.9-59.8z"/>
		<path d="M515.7-62.5h1.2v1.2h-1.2V-62.5z M515.8-59.8h1.1v7.1h-1.1V-59.8z"/>
		<path d="M519.3-59.8h1.1v1.8c0.5-1.2,1.5-2,2.9-2v1.1h-0.1c-1.5,0-2.8,1.1-2.8,3.2v2.8h-1.1V-59.8z"/>
	</g>
	<path class="st1" d="M30.2,28.7c-0.3,0-0.6,0-0.9,0.1l-1.9-3.9c1-0.7,1.7-1.8,1.7-3.1v0c0-2-1.6-3.7-3.7-3.7
		c-0.4,0-0.9,0.1-1.2,0.2l-3.8-7.7c1.6-0.9,2.8-2.5,2.9-4.5C23.7,3,21.3,0.3,18.2,0s-5.9,2.1-6.1,5.2s2.1,5.9,5.2,6.1
		c0.8,0.1,1.6,0,2.3-0.3l3.8,7.7c-1,0.7-1.6,1.8-1.6,3v0c0,2,1.5,3.7,3.7,3.7c0.4,0,0.8-0.1,1.1-0.2l1.9,3.9c-0.5,0.4-0.8,1-0.8,1.6
		c-0.1,1.3,0.9,2.5,2.2,2.6c1.3,0.1,2.5-0.9,2.6-2.2C32.5,29.9,31.5,28.8,30.2,28.7z"/>
	<g>
		<path d="M0,23.2L0,23.2c0-1.5,1.2-2.3,3-2.3c0.9,0,1.5,0.1,2.2,0.3V21c0-1.3-0.8-1.9-2.1-1.9c-0.8,0-1.5,0.2-2.1,0.5l-0.3-0.9
			c0.8-0.4,1.5-0.6,2.6-0.6c1,0,1.8,0.3,2.3,0.8C6,19.4,6.2,20.1,6.2,21v4.3h-1v-1.1c-0.5,0.6-1.3,1.2-2.6,1.2
			C1.3,25.4,0,24.7,0,23.2z M5.2,22.7V22c-0.5-0.2-1.2-0.3-2.1-0.3c-1.3,0-2.1,0.6-2.1,1.5v0c0,0.9,0.8,1.4,1.8,1.4
			C4.1,24.6,5.2,23.8,5.2,22.7z"/>
		<path d="M8.3,22.6v-4.4h1.1v4.1c0,1.3,0.7,2.1,2,2.1c1.2,0,2.1-0.9,2.1-2.2v-4.1h1v7.1h-1v-1.2c-0.5,0.8-1.2,1.4-2.4,1.4
			C9.3,25.4,8.3,24.3,8.3,22.6z"/>
		<path d="M17.3,23.4v-4.3h-1v-0.9h1v-2.1h1.1v2.1h2.2v0.9h-2.2v4.1c0,0.9,0.5,1.2,1.2,1.2c0.4,0,0.7-0.1,1-0.2v0.9
			c-0.4,0.2-0.8,0.3-1.3,0.3C18.1,25.4,17.3,24.9,17.3,23.4z"/>
		<path d="M30.2,28.7c-0.3,0-0.6,0-0.9,0.1l-1.9-3.9c1-0.7,1.7-1.8,1.7-3.1v0c0-2-1.6-3.7-3.7-3.7c-0.4,0-0.9,0.1-1.2,0.2l-3.8-7.7
			c1.6-0.9,2.8-2.5,2.9-4.5C23.7,3,21.3,0.3,18.2,0s-5.9,2.1-6.1,5.2s2.1,5.9,5.2,6.1c0.8,0.1,1.6,0,2.3-0.3l3.8,7.7
			c-1,0.7-1.6,1.8-1.6,3v0c0,2,1.5,3.7,3.7,3.7c0.4,0,0.8-0.1,1.1-0.2l1.9,3.9c-0.5,0.4-0.8,1-0.8,1.6c-0.1,1.3,0.9,2.5,2.2,2.6
			c1.3,0.1,2.5-0.9,2.6-2.2C32.5,29.9,31.5,28.8,30.2,28.7z M17.4,10.3c-2.6-0.2-4.5-2.5-4.3-5c0.2-2.6,2.5-4.5,5-4.3
			c2.6,0.2,4.5,2.5,4.3,5C22.2,8.6,19.9,10.5,17.4,10.3z M22.9,21.8L22.9,21.8c0-1.5,1.1-2.8,2.6-2.8c1.5,0,2.6,1.2,2.6,2.8v0
			c0,1.5-1.1,2.7-2.6,2.7C24,24.5,22.9,23.3,22.9,21.8z M29.9,32.5c-0.8-0.1-1.5-0.8-1.4-1.6c0.1-0.8,0.8-1.5,1.6-1.4
			c0.8,0.1,1.5,0.8,1.4,1.6C31.5,32,30.7,32.6,29.9,32.5z"/>
		<path d="M29.9,18.2h1.2l2.4,5.9l2.4-5.9H37l-3.1,7.1H33L29.9,18.2z"/>
		<path d="M38.7,15.5h1.2v1.2h-1.2V15.5z M38.8,18.2h1.1v7.1h-1.1V18.2z"/>
		<path d="M42.3,18.2h1.1v1.8c0.5-1.2,1.5-2,2.9-2v1.1h-0.1c-1.5,0-2.8,1.1-2.8,3.2v2.8h-1.1V18.2z"/>
	</g>
</g>
</svg>
